<?xml version="1.0"?>
<svg xmlns="http://www.w3.org/2000/svg" viewBox="0 0 64 64" width="512" height="512"><g id="Choice"><path d="M47,54H39.333L36,51.5V49.159A10.02,10.02,0,0,0,41.949,41H42a3,3,0,0,0,3-3V37a3,3,0,0,0-1.826-2.76l1.533-1.533A1,1,0,0,0,45,32V30a9.01,9.01,0,0,0-9-9H28a9.01,9.01,0,0,0-9,9v2a1,1,0,0,0,.293.707l1.533,1.533A3,3,0,0,0,19,37v1a3,3,0,0,0,3,3h.051A10.02,10.02,0,0,0,28,49.159V51.5L24.667,54H17a3,3,0,0,0-3,3v4a1,1,0,0,0,1,1H49a1,1,0,0,0,1-1V57A3,3,0,0,0,47,54ZM43,38a1,1,0,0,1-1,1V36a1,1,0,0,1,1,1ZM21,30a7.009,7.009,0,0,1,7-7h8a7.009,7.009,0,0,1,7,7v1.586l-1,1V32a1,1,0,0,0-.737-.965l-11-3a1,1,0,0,0-.657.046l-7,3A1,1,0,0,0,22,32v.586l-1-1Zm0,8V37a1,1,0,0,1,1-1v3A1,1,0,0,1,21,38Zm3,2V32.659l6.073-2.6L40,32.764V40a8,8,0,0,1-16,0Zm5.6,12.8A1,1,0,0,0,30,52V49.8a10,10,0,0,0,4,0V52a1,1,0,0,0,.4.8l2.389,1.791L32,55.96l-4.789-1.369ZM48,60H16V57a1,1,0,0,1,1-1h7.86l6.866,1.962a1,1,0,0,0,.548,0L39.14,56H47a1,1,0,0,1,1,1Z"/><path d="M25,10h3v7a1,1,0,0,0,1,1h6a1,1,0,0,0,1-1V10h3a1,1,0,0,0,.65-1.759l-7-6a1,1,0,0,0-1.3,0l-7,6A1,1,0,0,0,25,10Zm7-5.683L36.3,8H35a1,1,0,0,0-1,1v7H30V9a1,1,0,0,0-1-1H27.7Z"/><path d="M6.833,23.059a1,1,0,0,0,1.125-.2l2.122-2.121,4.949,4.951a1,1,0,0,0,1.414,0l4.244-4.244a1,1,0,0,0,0-1.414L15.736,15.08l2.121-2.122a1,1,0,0,0-.784-1.7l-9.192.707a1,1,0,0,0-.92.92l-.707,9.192A1,1,0,0,0,6.833,23.059ZM8.89,13.89l5.642-.435-.917.918a1,1,0,0,0,0,1.414l4.95,4.949-2.829,2.829-4.949-4.95a1,1,0,0,0-1.414,0l-.918.917Z"/><path d="M18,40V34a1,1,0,0,0-1-1H10V30a1,1,0,0,0-1.759-.65l-6,7a1,1,0,0,0,0,1.3l6,7A1,1,0,0,0,9,45a1.025,1.025,0,0,0,.347-.062A1,1,0,0,0,10,44V41h7A1,1,0,0,0,18,40Zm-2-1H9a1,1,0,0,0-1,1v1.3L4.317,37,8,32.7V34a1,1,0,0,0,1,1h7Z"/><path d="M61.759,36.35l-6-7A1,1,0,0,0,54,30v3H47a1,1,0,0,0-1,1v6a1,1,0,0,0,1,1h7v3a1,1,0,0,0,.653.938A1.025,1.025,0,0,0,55,45a1,1,0,0,0,.759-.35l6-7A1,1,0,0,0,61.759,36.35ZM56,41.3V40a1,1,0,0,0-1-1H48V35h7a1,1,0,0,0,1-1V32.7L59.683,37Z"/><path d="M47.557,25.687a1,1,0,0,0,1.414,0l4.949-4.951,2.122,2.121a1,1,0,0,0,1.7-.784l-.707-9.192a1,1,0,0,0-.92-.92l-9.192-.707a1,1,0,0,0-.784,1.7l2.121,2.122-4.951,4.949a1,1,0,0,0,0,1.414Zm2.828-9.9a1,1,0,0,0,0-1.414l-.917-.918,5.642.435.435,5.642-.918-.917a1,1,0,0,0-1.414,0l-4.949,4.95-2.829-2.829Z"/></g></svg>
